<svg xmlns="http://www.w3.org/2000/svg" viewBox="0 0 48 48" width="auto" height="auto">
  <radialGradient id="JihbqaVAJJ9xPUP7CTgEka" cx="34.396" cy="32.995" r="33.687" gradientTransform="rotate(180 24 24)" gradientUnits="userSpaceOnUse">
    <stop offset=".212" stop-color="#5059c9" />
    <stop offset=".373" stop-color="#545dcb" />
    <stop offset=".524" stop-color="#5f68d1" />
    <stop offset=".672" stop-color="#727ada" />
    <stop offset=".818" stop-color="#8d94e8" />
    <stop offset=".96" stop-color="#afb5f9" />
    <stop offset="1" stop-color="#bac0ff" />
  </radialGradient>
  <path fill="url(#JihbqaVAJJ9xPUP7CTgEka)" d="M24,44c11.046,0,20-8.954,20-20S35.046,4,24,4S4,12.954,4,24S12.954,44,24,44z" />
  <radialGradient id="JihbqaVAJJ9xPUP7CTgEkb" cx="16.925" cy="15.104" r="5.386" gradientTransform="translate(5.775 .338) scale(.9625)" gradientUnits="userSpaceOnUse">
    <stop offset=".313" stop-color="#3f41a1" stop-opacity="0" />
    <stop offset="1" stop-color="#3f41a1" />
  </radialGradient>
  <path fill="url(#JihbqaVAJJ9xPUP7CTgEkb)" d="M21,10c-1.657,0-3,1.343-3,3s1.343,3,3,3s3-1.343,3-3S22.657,10,21,10z" />
  <radialGradient id="JihbqaVAJJ9xPUP7CTgEkc" cx="13.71" cy="25.25" r="3.456" gradientUnits="userSpaceOnUse">
    <stop offset=".313" stop-color="#3f41a1" stop-opacity="0" />
    <stop offset="1" stop-color="#3f41a1" />
  </radialGradient>
  <path fill="url(#JihbqaVAJJ9xPUP7CTgEkc)" d="M13,22c-1.105,0-2,0.895-2,2s0.895,2,2,2s2-0.895,2-2S14.105,22,13,22z" />
  <radialGradient id="JihbqaVAJJ9xPUP7CTgEkd" cx="37.033" cy="22.438" r="2.592" gradientUnits="userSpaceOnUse">
    <stop offset=".313" stop-color="#3f41a1" stop-opacity="0" />
    <stop offset="1" stop-color="#3f41a1" />
  </radialGradient>
  <path fill="url(#JihbqaVAJJ9xPUP7CTgEkd)" d="M36.5,20c-0.828,0-1.5,0.672-1.5,1.5s0.672,1.5,1.5,1.5s1.5-0.672,1.5-1.5S37.328,20,36.5,20z" />
</svg>