<svg xmlns="http://www.w3.org/2000/svg" viewBox="0 0 48 48" width="auto" height="auto">
  <radialGradient id="JzfFT7ouuh6ML38K~TvAOa" cx="23.86" cy="42.383" r="20.365" gradientUnits="userSpaceOnUse">
    <stop offset=".756" stop-color="#ffed54" />
    <stop offset=".806" stop-color="#ffe649" />
    <stop offset=".891" stop-color="#ffd22d" />
    <stop offset="1" stop-color="#ffb300" />
  </radialGradient>
  <path fill="url(#JzfFT7ouuh6ML38K~TvAOa)" d="M24,21l1.356,1.407c0.888,0.921,2.28,1.142,3.409,0.54l1.725-0.919l0.855,1.757 c0.56,1.151,1.815,1.79,3.075,1.567l1.924-0.341l0.27,1.935c0.177,1.267,1.173,2.264,2.44,2.44l1.935,0.27l-0.341,1.924 c-0.223,1.26,0.416,2.515,1.567,3.075l1.757,0.855l-0.919,1.725c-0.602,1.129-0.381,2.521,0.54,3.409L45,42H3l1.407-1.356 c0.921-0.888,1.142-2.28,0.54-3.409l-0.919-1.725l1.757-0.855c1.151-0.56,1.79-1.815,1.567-3.075l-0.341-1.924l1.935-0.27 c1.267-0.177,2.264-1.173,2.44-2.44l0.27-1.935l1.924,0.341c1.26,0.223,2.515-0.416,3.075-1.567l0.855-1.757l1.725,0.919 c1.129,0.602,2.521,0.381,3.409-0.54L24,21z" />
  <linearGradient id="JzfFT7ouuh6ML38K~TvAOb" x1="13.716" x2="40.518" y1="28.402" y2="55.204" gradientUnits="userSpaceOnUse">
    <stop offset="0" stop-color="#fed100" />
    <stop offset="1" stop-color="#e36001" />
  </linearGradient>
  <path fill="url(#JzfFT7ouuh6ML38K~TvAOb)" d="M24,26c-8.837,0-16,7.163-16,16h32C40,33.163,32.837,26,24,26z" />
  <linearGradient id="JzfFT7ouuh6ML38K~TvAOc" x1="18" x2="30" y1="9.823" y2="9.823" gradientUnits="userSpaceOnUse">
    <stop offset="0" stop-color="#42a3f2" />
    <stop offset="1" stop-color="#42a4eb" />
  </linearGradient>
  <path fill="url(#JzfFT7ouuh6ML38K~TvAOc)" d="M18.607,9H22v7c0,0.552,0.448,1,1,1h2c0.552,0,1-0.448,1-1V9h3.393 c0.54,0,0.81-0.653,0.428-1.034l-4.964-4.964c-0.473-0.473-1.241-0.473-1.714,0l-4.964,4.964C17.797,8.347,18.067,9,18.607,9z" />
</svg>