<svg xmlns="http://www.w3.org/2000/svg" width="auto" height="auto" viewBox="0 0 48 48"><path fill="#5B5B5B" d="M36.476562 6.9785156 A 1.50015 1.50015 0 0 0 36.304688 6.9921875L33.814453 6.9921875C26.755794 6.9921874 21 12.746951 21 19.806641L21 20.050781C18.071541 21.539354 16 24.50351 16 28L8.5 28 A 1.50015 1.50015 0 1 0 8.5 31L16 31L16 36 A 1.50015 1.50015 0 0 0 17.210938 37.472656L23.238281 38.65625C23.47051 39.535629 23.870656 40.377437 24.503906 41.089844C25.528815 42.242867 27.125 43 29 43C30.875 43 32.471185 42.242867 33.496094 41.089844C34.046943 40.470138 34.42798 39.754078 34.673828 39L45.5 39 A 1.50015 1.50015 0 1 0 45.5 36L34.916016 36C34.744179 34.882449 34.286321 33.799162 33.496094 32.910156C32.471185 31.757133 30.875 31 29 31C27.125 31 25.528815 31.757133 24.503906 32.910156C23.812567 33.687913 23.390877 34.618083 23.175781 35.585938L19 34.765625L19 29.746094 A 1.50015 1.50015 0 0 0 19 29.259766L19 28C19 24.667765 21.669236 22 25.001953 22L36.253906 22 A 1.50015 1.50015 0 0 0 36.740234 22L45.5 22 A 1.50015 1.50015 0 1 0 45.5 19L38 19L38 9.9921875L45.5 9.9921875 A 1.50015 1.50015 0 1 0 45.5 6.9921875L36.685547 6.9921875 A 1.50015 1.50015 0 0 0 36.476562 6.9785156 z M 18.5 7 A 1.5 1.5 0 0 0 18.5 10 A 1.5 1.5 0 0 0 18.5 7 z M 33.814453 9.9921875L35 9.9921875L35 19L25.001953 19C24.692007 19 24.429045 19.146817 24.126953 19.177734C24.466387 14.051895 28.600468 9.9921875 33.814453 9.9921875 z M 9.5 14 A 1.50015 1.50015 0 1 0 9.5 17L17.5 17 A 1.50015 1.50015 0 1 0 17.5 14L9.5 14 z M 4.5 21 A 1.50015 1.50015 0 1 0 4.5 24L11.5 24 A 1.50015 1.50015 0 1 0 11.5 21L4.5 21 z M 2.5 28 A 1.5 1.5 0 0 0 2.5 31 A 1.5 1.5 0 0 0 2.5 28 z M 29 34C30.124999 34 30.778816 34.367867 31.253906 34.902344C31.728997 35.436821 32 36.208333 32 37C32 37.791667 31.728997 38.563179 31.253906 39.097656C30.778816 39.632133 30.124999 40 29 40C27.875001 40 27.221184 39.632133 26.746094 39.097656C26.271003 38.563179 26 37.791667 26 37C26 36.208333 26.271003 35.436821 26.746094 34.902344C27.221184 34.367867 27.875001 34 29 34 z"/></svg>