<svg xmlns="http://www.w3.org/2000/svg" width="auto" height="auto" viewBox="0 0 48 48"><path fill="#5B5B5B" d="M14.443359 4.984375 A 1.50015 1.50015 0 0 0 13.236328 5.6914062C13.236328 5.6914062 11.952878 7.6938252 10.666016 10.199219C9.3791524 12.704612 8 15.588638 8 18.167969C8 20.747299 9.4863282 22.860047 10.736328 24.810547C11.986328 26.761047 13 28.548315 13 29.833984C13 31.119654 11.879144 34.070044 10.666016 36.431641C9.4528871 38.793237 8.2363281 40.691406 8.2363281 40.691406 A 1.5002303 1.5002303 0 1 0 10.763672 42.308594C10.763672 42.308594 12.047113 40.307888 13.333984 37.802734C14.620856 35.297581 16 32.413315 16 29.833984C16 27.254654 14.513672 25.141906 13.263672 23.191406C12.013672 21.240906 11 19.453638 11 18.167969C11 16.882299 12.120847 13.93217 13.333984 11.570312C14.547122 9.2084563 15.763672 7.3085936 15.763672 7.3085938 A 1.50015 1.50015 0 0 0 14.443359 4.984375 z M 26.443359 4.984375 A 1.50015 1.50015 0 0 0 25.236328 5.6914062C25.236328 5.6914062 23.952878 7.6938252 22.666016 10.199219C21.379153 12.704612 20 15.588638 20 18.167969C20 20.747299 21.486328 22.860047 22.736328 24.810547C23.986328 26.761047 25 28.548315 25 29.833984C25 31.119654 23.879153 34.069784 22.666016 36.431641C21.452878 38.793497 20.236328 40.691406 20.236328 40.691406 A 1.5007569 1.5007569 0 1 0 22.763672 42.310547C22.763672 42.310547 24.047122 40.308128 25.333984 37.802734C26.620847 35.297341 28 32.413315 28 29.833984C28 27.254654 26.513672 25.141906 25.263672 23.191406C24.013672 21.240906 23 19.453638 23 18.167969C23 16.882299 24.120847 13.93217 25.333984 11.570312C26.547122 9.2084563 27.763672 7.3085936 27.763672 7.3085938 A 1.50015 1.50015 0 0 0 26.443359 4.984375 z M 38.443359 4.984375 A 1.50015 1.50015 0 0 0 37.236328 5.6914062C37.236328 5.6914062 35.952878 7.6938252 34.666016 10.199219C33.379153 12.704612 32 15.588638 32 18.167969C32 20.747299 33.486328 22.860047 34.736328 24.810547C35.986328 26.761047 37 28.548315 37 29.833984C37 31.119654 35.879153 34.069784 34.666016 36.431641C33.452878 38.793497 32.236328 40.691406 32.236328 40.691406 A 1.5007569 1.5007569 0 1 0 34.763672 42.310547C34.763672 42.310547 36.047122 40.308128 37.333984 37.802734C38.620847 35.297341 40 32.413315 40 29.833984C40 27.254654 38.513672 25.141906 37.263672 23.191406C36.013672 21.240906 35 19.453638 35 18.167969C35 16.882299 36.120847 13.93217 37.333984 11.570312C38.547122 9.2084563 39.763672 7.3085936 39.763672 7.3085938 A 1.50015 1.50015 0 0 0 38.443359 4.984375 z"/></svg>