<?xml version="1.0" encoding="utf-8"?>
<svg xmlns="http://www.w3.org/2000/svg" viewBox="0 0 48 48" width="auto" height="auto">
  <path d="M21.5 9C19.286874 9 17.393031 10.212099 16.09375 11.810547C15.137869 12.986525 14.458139 14.395128 14.164062 15.878906L7.9492188 15.337891C5.3233834 15.074861 3 17.176355 3 19.814453L3 30.5 A 1.50015 1.50015 0 0 0 3 30.523438 A 1.50015 1.50015 0 0 0 3 30.574219L3 33.388672C3 35.170528 3.8280346 36.725279 5.078125 37.632812C6.3282154 38.540346 7.8783498 38.882864 9.4785156 38.888672L38.478516 38.982422C40.088329 38.988222 41.647488 38.648359 42.90625 37.740234C44.165012 36.83211 45 35.272672 45 33.482422L45 30.5 A 1.50015 1.50015 0 0 0 44.990234 30.326172C44.895765 24.625111 40.2228 20 34.5 20L30.5 20C28.549938 20 27 18.450062 27 16.5L27 12.5C27 10.585045 25.414955 9 23.5 9L21.5 9 z M 21.5 12L23.5 12C23.795045 12 24 12.204955 24 12.5L24 16.5 A 1.50015 1.50015 0 0 0 24.007812 16.667969C24.017427 17.03801 24.055162 17.401221 24.125 17.753906L21.439453 20.439453 A 1.50015 1.50015 0 1 0 23.560547 22.560547L25.492188 20.628906C26.063807 21.320049 26.777975 21.885873 27.583984 22.294922L26.439453 23.439453 A 1.50015 1.50015 0 1 0 28.560547 25.560547L30.560547 23.560547 A 1.50015 1.50015 0 0 0 30.921875 23L34.5 23C38.660499 23 42 26.339501 42 30.5C42 30.795045 41.795045 31 41.5 31L26.087891 31C21.692503 31 17.328692 30.196259 13.109375 28.806641C11.175354 28.169551 8.7641072 27.631598 6 27.523438L6 24.019531C6.7530901 24.074421 8.549823 24.169723 10.794922 23.720703C12.186352 23.442417 13.651816 22.962922 14.875 21.984375C16.055708 21.039809 16.9285 19.523137 16.988281 17.695312 A 1.50015 1.50015 0 0 0 17 17.5C17 16.24825 17.549656 14.776177 18.421875 13.703125C19.294094 12.630073 20.399126 12 21.5 12 z M 7.3183594 18.322266C7.4255688 18.310836 7.5368701 18.310894 7.6503906 18.322266 A 1.50015 1.50015 0 0 0 7.6699219 18.324219L13.6875 18.847656C13.5205 19.147065 13.300886 19.399916 13 19.640625C12.348184 20.162078 11.313648 20.557583 10.205078 20.779297C8.1589977 21.188513 6.3196148 21.016067 6 20.990234L6 19.814453C6 19.01654 6.5678933 18.402272 7.3183594 18.322266 z M 6 30.544922C8.3858997 30.652481 10.489514 31.102704 12.169922 31.65625C16.646605 33.130631 21.327278 34 26.087891 34L41.5 34C41.657108 34 41.80701 33.97377 41.958984 33.953125C41.872638 34.60474 41.607616 34.978188 41.152344 35.306641C40.594606 35.709016 39.646468 35.986606 38.488281 35.982422L9.4882812 35.888672C8.3334472 35.88448 7.3925033 35.606295 6.8398438 35.205078C6.2871841 34.803862 6 34.361816 6 33.388672L6 30.574219 A 1.50015 1.50015 0 0 0 5.9980469 30.558594 A 1.50015 1.50015 0 0 0 6 30.544922 z" fill="#5B5B5B" />
</svg>