<?xml version="1.0" encoding="utf-8"?>
<svg xmlns="http://www.w3.org/2000/svg" viewBox="0 0 48 48" width="auto" height="auto">
  <path fill="#35c1f1" d="M23.554,36.36l-2.446,3.311c-0.145,0.196-0.145,0.463,0,0.659l2.446,3.311c0.111,0.15,0.278,0.225,0.446,0.225L25,40l-1-3.865C23.833,36.135,23.665,36.21,23.554,36.36z" />
  <linearGradient id="fcOiTiRS1VIGiY5i2yjH8a" x1="21.313" x2="25.618" y1="6.079" y2="31.448" gradientUnits="userSpaceOnUse">
    <stop offset="0" stop-color="#fcfcfc" />
    <stop offset="1" stop-color="#c3c9cd" />
  </linearGradient>
  <path fill="url(#fcOiTiRS1VIGiY5i2yjH8a)" d="M34,11c-0.331,0-0.657,0.018-0.98,0.049C30.741,7.99,27.108,6,23,6c-5.713,0-10.52,3.837-12.012,9.071C7.049,15.569,4,18.925,4,23c0,4.418,3.582,8,8,8c1.818,0,20.107,0,22,0c5.523,0,10-4.477,10-10C44,15.477,39.523,11,34,11z" />
  <path fill="#199be2" d="M26.892,40.329c0.145-0.196,0.145-0.463,0-0.659l-2.446-3.311c-0.111-0.15-0.278-0.225-0.446-0.225v7.729c0.167,0,0.335-0.075,0.446-0.225L26.892,40.329z" />
  <path fill="#35c1f1" d="M33.703,35.573l-1.631,2.207c-0.096,0.13-0.096,0.309,0,0.439l1.631,2.207c0.074,0.1,0.186,0.15,0.297,0.15L34.667,38L34,35.423C33.888,35.423,33.777,35.473,33.703,35.573z" />
  <path fill="#199be2" d="M35.928,38.22c0.096-0.13,0.096-0.309,0-0.439l-1.631-2.207c-0.074-0.1-0.186-0.15-0.297-0.15v5.153c0.112,0,0.223-0.05,0.297-0.15L35.928,38.22z" />
  <path fill="#35c1f1" d="M13.703,35.573l-1.631,2.207c-0.096,0.13-0.096,0.309,0,0.439l1.631,2.207c0.074,0.1,0.186,0.15,0.297,0.15L14.667,38L14,35.423C13.888,35.423,13.777,35.473,13.703,35.573z" />
  <path fill="#199be2" d="M15.928,38.22c0.096-0.13,0.096-0.309,0-0.439l-1.631-2.207c-0.074-0.1-0.186-0.15-0.297-0.15v5.153c0.112,0,0.223-0.05,0.297-0.15L15.928,38.22z" />
</svg>