<?xml version="1.0" encoding="utf-8"?>
<svg xmlns="http://www.w3.org/2000/svg" viewBox="0 0 48 48" width="auto" height="auto">
  <linearGradient id="AfnK1Wdh7wau4O08A0MKWa" x1="17.396" x2="34.337" y1="5.756" y2="52.304" gradientUnits="userSpaceOnUse">
    <stop offset="0" stop-color="#889097" />
    <stop offset="1" stop-color="#4c5963" />
  </linearGradient>
  <path fill="url(#AfnK1Wdh7wau4O08A0MKWa)" d="M40.355,32.489c0.506-0.226,0.95,0.422,0.554,0.81c-3.523,3.452-11.113,9.159-19.789,5.104c0.933,1.866,2.583,3.24,4.034,4.16c0.476,0.302,0.16,1.034-0.388,0.905c-4.738-1.122-13.194-4.533-14.924-14.713c-1.196,1.811-1.653,3.897-1.813,5.519c-0.054,0.55-0.825,0.632-0.977,0.101c-1.248-4.345-2.424-13.222,5.671-20.022c-1.718-0.103-3.3,0.302-4.579,0.825c-0.53,0.217-0.958-0.468-0.522-0.839c3.402-2.897,10.016-6.851,19.258-4.74c-0.92-1.84-2.537-3.201-3.973-4.121c-0.476-0.305-0.158-1.042,0.39-0.904c4.626,1.161,12.67,4.611,14.38,14.673c1.355-2.052,1.919-4.457,2.155-6.139c0.073-0.524,0.801-0.592,0.968-0.09c1.342,4.061,3.081,13.446-6.003,20.632C36.87,33.773,38.856,33.158,40.355,32.489z M24,21c-1.656,0-3,1.344-3,3s1.344,3,3,3s3-1.344,3-3S25.656,21,24,21z" />
  <linearGradient id="AfnK1Wdh7wau4O08A0MKWb" x1="18.992" x2="28.444" y1="9.694" y2="35.662" gradientUnits="userSpaceOnUse">
    <stop offset="0" stop-color="#a1aab3" />
    <stop offset="1" stop-color="#8f979e" />
  </linearGradient>
  <path fill="url(#AfnK1Wdh7wau4O08A0MKWb)" d="M28.452,34.341c0.327,0.091,0.284,0.569-0.054,0.598c-3.009,0.256-8.817-0.01-11.331-5.307c-0.287,1.245-0.044,2.537,0.282,3.536c0.107,0.328-0.328,0.551-0.536,0.276c-1.799-2.377-4.46-7.284-1.308-12.764c-1.27,0.389-2.3,1.195-3.008,1.898c-0.24,0.238-0.636-0.023-0.501-0.333c1.105-2.537,4.011-7.186,10.484-7.24c-0.771-0.719-1.676-1.144-2.483-1.396c-0.335-0.104-0.27-0.594,0.081-0.599c2.736-0.041,7.399,0.672,10.938,5.272c0.283-1.227,0.051-2.5-0.269-3.494c-0.106-0.33,0.331-0.553,0.537-0.275c1.731,2.352,4.182,7.117,1.066,12.533c1.439-0.44,2.644-1.356,3.411-2.058c0.239-0.219,0.609,0.033,0.492,0.335c-0.95,2.44-3.788,7.548-10.878,7.398C26.306,33.588,27.484,34.072,28.452,34.341z M24,21c-1.656,0-3,1.344-3,3s1.344,3,3,3s3-1.344,3-3S25.656,21,24,21z" />
</svg>