<?xml version="1.0" encoding="utf-8"?>
<!-- Generator: Adobe Illustrator 27.3.1, SVG Export Plug-In . SVG Version: 6.00 Build 0)  -->
<svg version="1.1" baseProfile="basic" id="Livello_1"
	 xmlns="http://www.w3.org/2000/svg" xmlns:xlink="http://www.w3.org/1999/xlink" x="0px" y="0px" viewBox="0 0 240 240"
	 xml:space="preserve">
<path fill="#666666" d="M20,160c0-2.8,2.2-5,5-5c6.4,0,15.3-2.1,24.7-4.3c11.2-2.7,24-5.7,35.3-5.7c10.9,0,24.6,5,39.2,10.3
	c13.1,4.8,26.7,9.7,35.8,9.7c10.1,0,20.2-2.7,30.1-5.4c8.9-2.4,17.3-4.6,24.9-4.6c2.8,0,5,2.2,5,5s-2.2,5-5,5
	c-6.3,0-14.1,2.1-22.3,4.3c-10,2.7-21.3,5.7-32.7,5.7c-10.9,0-24.6-5-39.2-10.3c-13.1-4.8-26.7-9.7-35.8-9.7
	c-10.1,0-21.8,2.7-33,5.4c-10,2.4-19.5,4.6-27,4.6C22.2,165,20,162.8,20,160z"/>
<path fill="#666666" d="M20,80c0-2.8,2.2-5,5-5c6.4,0,15.3-2.1,24.7-4.3C60.9,68,73.7,65,85,65c10.9,0,24.6,5,39.2,10.3
	c13.1,4.8,26.7,9.7,35.8,9.7c10.1,0,20.2-2.7,30.1-5.4C199,77.2,207.4,75,215,75c2.8,0,5,2.2,5,5s-2.2,5-5,5
	c-6.3,0-14.1,2.1-22.3,4.3C182.7,92,171.4,95,160,95c-10.9,0-24.6-5-39.2-10.3C107.7,79.9,94.1,75,85,75c-10.1,0-21.8,2.7-33,5.4
	C42,82.8,32.5,85,25,85C22.2,85,20,82.8,20,80z"/>
<path fill="#666666" d="M40,116.9c0-2.3,1.6-4.3,3.9-4.9l5.8-1.4c11.2-2.7,24-5.7,35.3-5.7c10.9,0,24.6,5,39.2,10.3
	c13.1,4.8,26.7,9.7,35.8,9.7c10.1,0,20.3-2.7,30.1-5.4l3.6-1c2.7-0.7,5.4,0.9,6.1,3.6c0.7,2.7-0.9,5.4-3.6,6.1l-3.6,0.9
	c-10,2.7-21.3,5.7-32.7,5.7c-10.9,0-24.6-5-39.2-10.3c-13.1-4.8-26.7-9.7-35.8-9.7c-10.1,0-21.8,2.7-33,5.4l-5.9,1.4
	c-2.7,0.6-5.4-1.1-6-3.8C40,117.6,40,117.3,40,116.9z"/>
<path fill="#666666" d="M40,196.9c0-2.3,1.6-4.3,3.9-4.9l5.8-1.4c11.2-2.7,24-5.7,35.3-5.7c10.9,0,24.6,5,39.2,10.3
	c13.1,4.8,26.7,9.7,35.8,9.7c10.1,0,20.3-2.7,30.1-5.4l3.6-1c2.7-0.7,5.4,0.9,6.1,3.6c0.7,2.7-0.9,5.4-3.6,6.1l-3.6,0.9
	c-10,2.7-21.3,5.7-32.7,5.7c-10.9,0-24.6-5-39.2-10.3c-13.1-4.8-26.7-9.7-35.8-9.7c-10.1,0-21.8,2.7-33,5.4l-5.9,1.4
	c-2.7,0.6-5.4-1.1-6-3.8C40,197.6,40,197.3,40,196.9z"/>
<path fill="#666666" d="M40,36.9c0-2.3,1.6-4.3,3.9-4.9l5.8-1.4C60.9,28,73.7,25,85,25c10.9,0,24.6,5,39.2,10.3
	c13.1,4.8,26.7,9.7,35.8,9.7c10.1,0,20.3-2.7,30.1-5.4l3.6-1c2.7-0.7,5.4,0.9,6.1,3.6c0.7,2.7-0.9,5.4-3.6,6.1l-3.6,1
	C182.7,52,171.4,55,160,55c-10.9,0-24.6-5-39.2-10.3C107.7,39.9,94.1,35,85,35c-10.1,0-21.8,2.7-33,5.4l-5.9,1.4
	c-2.7,0.6-5.4-1.1-6-3.8C40,37.6,40,37.3,40,36.9z"/>
</svg>
