<svg xmlns="http://www.w3.org/2000/svg" width="auto" height="auto" viewBox="0 0 48 48"><radialGradient id="XEg6Kucayw1ayN2b1EYa9a" cx="22.01" cy="46.385" r="1.855" gradientTransform="matrix(.658 .6831 -.4461 .4335 23.976 7.636)" gradientUnits="userSpaceOnUse"><stop offset="0" stop-color="#0083c4"/><stop offset=".22" stop-color="#0287c6"/><stop offset=".438" stop-color="#0a93cc"/><stop offset=".655" stop-color="#16a7d7"/><stop offset=".87" stop-color="#27c2e5"/><stop offset="1" stop-color="#33d7f0"/></radialGradient><path fill="url(#XEg6Kucayw1ayN2b1EYa9a)" d="M18.987,44.048c-0.457,0.444-1.374,0.237-2.049-0.463c-0.674-0.7-0.85-1.628-0.393-2.072 c0.457-0.444,1.374-0.237,2.049,0.463C19.268,42.676,19.444,43.604,18.987,44.048z"/><radialGradient id="XEg6Kucayw1ayN2b1EYa9b" cx="25.29" cy="45.74" r="3.365" gradientTransform="matrix(.7881 .5567 -.3423 .5116 15.568 4.54)" gradientUnits="userSpaceOnUse"><stop offset="0" stop-color="#0083c4"/><stop offset=".22" stop-color="#0287c6"/><stop offset=".438" stop-color="#0a93cc"/><stop offset=".655" stop-color="#16a7d7"/><stop offset=".87" stop-color="#27c2e5"/><stop offset="1" stop-color="#33d7f0"/></radialGradient><path fill="url(#XEg6Kucayw1ayN2b1EYa9b)" d="M21.854,44.657c-0.809,0.685-2.366,0.059-3.479-1.398c-1.112-1.458-1.358-3.195-0.55-3.88 c0.809-0.685,2.366-0.059,3.479,1.398S22.663,43.972,21.854,44.657z"/><radialGradient id="XEg6Kucayw1ayN2b1EYa9c" cx="28.309" cy="44.032" r="5.002" gradientTransform="matrix(.8689 .479 -.2745 .5491 9.543 2.773)" gradientUnits="userSpaceOnUse"><stop offset="0" stop-color="#0083c4"/><stop offset=".22" stop-color="#0287c6"/><stop offset=".438" stop-color="#0a93cc"/><stop offset=".655" stop-color="#16a7d7"/><stop offset=".87" stop-color="#27c2e5"/><stop offset="1" stop-color="#33d7f0"/></radialGradient><path fill="url(#XEg6Kucayw1ayN2b1EYa9c)" d="M25.429,44.301c-1.107,1.073-3.517,0.245-5.381-1.849c-1.865-2.094-2.478-4.661-1.371-5.734 c1.107-1.073,3.517-0.245,5.381,1.849C25.923,40.66,26.537,43.228,25.429,44.301z"/><radialGradient id="XEg6Kucayw1ayN2b1EYa9d" cx="30.929" cy="41.425" r="6.537" gradientTransform="matrix(.9448 .4092 -.2174 .5775 3.97 1.746)" gradientUnits="userSpaceOnUse"><stop offset="0" stop-color="#0083c4"/><stop offset=".22" stop-color="#0287c6"/><stop offset=".438" stop-color="#0a93cc"/><stop offset=".655" stop-color="#16a7d7"/><stop offset=".87" stop-color="#27c2e5"/><stop offset="1" stop-color="#33d7f0"/></radialGradient><path fill="url(#XEg6Kucayw1ayN2b1EYa9d)" d="M29.366,42.852c-1.293,1.58-4.661,0.834-7.523-1.667c-2.862-2.501-4.134-5.808-2.841-7.388 c1.293-1.58,4.661-0.834,7.523,1.667C29.387,37.965,30.659,41.272,29.366,42.852z"/><radialGradient id="XEg6Kucayw1ayN2b1EYa9e" cx="33.065" cy="38.153" r="7.92" gradientTransform="matrix(1.0277 .3187 -.1544 .6057 -2.081 1.89)" gradientUnits="userSpaceOnUse"><stop offset="0" stop-color="#0083c4"/><stop offset=".22" stop-color="#0287c6"/><stop offset=".438" stop-color="#0a93cc"/><stop offset=".655" stop-color="#16a7d7"/><stop offset=".87" stop-color="#27c2e5"/><stop offset="1" stop-color="#33d7f0"/></radialGradient><path fill="url(#XEg6Kucayw1ayN2b1EYa9e)" d="M33.388,40.157c-1.298,2.193-5.654,1.902-9.728-0.649c-4.074-2.551-6.325-6.397-5.027-8.59 s5.654-1.902,9.728,0.649S34.686,37.964,33.388,40.157z"/><radialGradient id="XEg6Kucayw1ayN2b1EYa9f" cx="34.693" cy="34.47" r="9.145" gradientTransform="matrix(1.1149 .1863 -.0745 .6333 -8.8 3.928)" gradientUnits="userSpaceOnUse"><stop offset="0" stop-color="#0083c4"/><stop offset=".22" stop-color="#0287c6"/><stop offset=".438" stop-color="#0a93cc"/><stop offset=".655" stop-color="#16a7d7"/><stop offset=".87" stop-color="#27c2e5"/><stop offset="1" stop-color="#33d7f0"/></radialGradient><path fill="url(#XEg6Kucayw1ayN2b1EYa9f)" d="M37.141,36.01c-1.045,2.875-6.294,3.508-11.723,1.413c-5.429-2.094-8.983-6.122-7.937-8.997 s6.294-3.508,11.723-1.413S38.186,33.135,37.141,36.01z"/><radialGradient id="XEg6Kucayw1ayN2b1EYa9g" cx="35.837" cy="30.611" r="10.221" gradientTransform="matrix(1.1915 .0016 .0264 .654 -15.643 8.362)" gradientUnits="userSpaceOnUse"><stop offset="0" stop-color="#0083c4"/><stop offset=".22" stop-color="#0287c6"/><stop offset=".438" stop-color="#0a93cc"/><stop offset=".655" stop-color="#16a7d7"/><stop offset=".87" stop-color="#27c2e5"/><stop offset="1" stop-color="#33d7f0"/></radialGradient><path fill="url(#XEg6Kucayw1ayN2b1EYa9g)" d="M40.101,30.267c-0.473,3.54-6.336,5.592-13.094,4.583c-6.758-1.009-11.853-4.696-11.38-8.236 c0.473-3.54,6.336-5.592,13.094-4.583C35.479,23.039,40.574,26.727,40.101,30.267z"/><radialGradient id="XEg6Kucayw1ayN2b1EYa9h" cx="36.554" cy="26.764" r="11.164" gradientTransform="matrix(1.2381 -.2253 .1421 .6604 -21.614 14.837)" gradientUnits="userSpaceOnUse"><stop offset="0" stop-color="#0083c4"/><stop offset=".22" stop-color="#0287c6"/><stop offset=".438" stop-color="#0a93cc"/><stop offset=".655" stop-color="#16a7d7"/><stop offset=".87" stop-color="#27c2e5"/><stop offset="1" stop-color="#33d7f0"/></radialGradient><path fill="url(#XEg6Kucayw1ayN2b1EYa9h)" d="M41.607,23.053c0.4,4.066-5.615,7.909-13.435,8.584s-14.483-2.074-14.883-6.14 c-0.4-4.066,5.615-7.909,13.435-8.584C34.543,16.238,41.207,18.987,41.607,23.053z"/><radialGradient id="XEg6Kucayw1ayN2b1EYa9i" cx="36.916" cy="23.064" r="11.993" gradientTransform="matrix(1.2461 -.466 .2584 .6507 -26.12 21.988)" gradientUnits="userSpaceOnUse"><stop offset="0" stop-color="#0083c4"/><stop offset=".22" stop-color="#0287c6"/><stop offset=".438" stop-color="#0a93cc"/><stop offset=".655" stop-color="#16a7d7"/><stop offset=".87" stop-color="#27c2e5"/><stop offset="1" stop-color="#33d7f0"/></radialGradient><path fill="url(#XEg6Kucayw1ayN2b1EYa9i)" d="M41.113,14.851c1.457,4.363-4.2,10.113-12.635,12.843s-16.455,1.405-17.912-2.958 s4.2-10.113,12.635-12.843S39.656,10.488,41.113,14.851z"/><radialGradient id="XEg6Kucayw1ayN2b1EYa9j" cx="36.995" cy="19.596" r="12.723" gradientTransform="matrix(1.2248 -.6914 .3624 .6314 -29.595 28.275)" gradientUnits="userSpaceOnUse"><stop offset="0" stop-color="#0083c4"/><stop offset=".22" stop-color="#0287c6"/><stop offset=".438" stop-color="#0a93cc"/><stop offset=".655" stop-color="#16a7d7"/><stop offset=".87" stop-color="#27c2e5"/><stop offset="1" stop-color="#33d7f0"/></radialGradient><path fill="url(#XEg6Kucayw1ayN2b1EYa9j)" d="M38.404,6.272c2.547,4.437-2.366,11.972-10.973,16.83s-17.649,5.2-20.196,0.764 s2.366-11.972,10.973-16.83S35.857,1.836,38.404,6.272z"/><path fill="#33d7f0" d="M21.071,21.587c-0.638,0-1.2-0.132-1.636-0.435c-0.654-0.455-1.02-1.088-1.06-1.833c-0.099-1.851,1.95-3.726,2.361-4.083c0.417-0.362,1.047-0.317,1.409,0.1c0.362,0.416,0.318,1.047-0.098,1.41c-0.725,0.632-1.71,1.841-1.675,2.468c0.003,0.063,0.009,0.16,0.205,0.296c0.593,0.412,3.983-0.55,6.508-2.646c2.571-2.135,4.226-4.457,4.317-6.057c0.027-0.473-0.09-0.839-0.358-1.119c-0.88-0.917-6.086,0.1-10.598,3.039c-5.714,3.825-6.311,6.929-6.316,6.959c-0.093,0.538-0.601,0.911-1.141,0.826c-0.539-0.084-0.913-0.578-0.837-1.118c0.055-0.398,0.729-4.01,7.192-8.336C23.323,8.467,30.284,6,32.49,8.306c0.654,0.683,0.969,1.587,0.91,2.616c-0.126,2.201-1.961,4.928-5.037,7.481C26.495,19.955,23.316,21.586,21.071,21.587z"/></svg>