<?xml version="1.0" encoding="utf-8"?>
<!-- Generator: Adobe Illustrator 27.3.1, SVG Export Plug-In . SVG Version: 6.00 Build 0)  -->
<svg version="1.0" id="Livello_1" xmlns="http://www.w3.org/2000/svg" xmlns:xlink="http://www.w3.org/1999/xlink" x="0px" y="0px"
	 viewBox="0 0 240 240" enable-background="new 0 0 240 240" xml:space="preserve">
<linearGradient id="SVGID_1_" gradientUnits="userSpaceOnUse" x1="44.9706" y1="154.999" x2="194.9726" y2="154.999">
	<stop  offset="5.327789e-09" style="stop-color:#8A8A8A"/>
	<stop  offset="1" style="stop-color:#858752"/>
</linearGradient>
<path fill="url(#SVGID_1_)" d="M195,155c0,1.9-1.1,3.7-2.9,4.6c-29.4,13.4-53.1,6.6-75.9,0.1c-21-6-40.9-11.7-63.9-0.2
	c-2.5,1.2-5.5,0.2-6.7-2.2c-1.2-2.5-0.2-5.5,2.2-6.7c26.5-13.3,49.2-6.8,71.1-0.5c22.1,6.3,42.9,12.3,69,0.4c2.5-1.1,5.5,0,6.6,2.5
	C194.8,153.6,195,154.3,195,155z"/>
<linearGradient id="SVGID_00000137810473642260655670000012112620905306288298_" gradientUnits="userSpaceOnUse" x1="44.9706" y1="119.999" x2="194.9726" y2="119.999">
	<stop  offset="5.327789e-09" style="stop-color:#8A8A8A"/>
	<stop  offset="1" style="stop-color:#858752"/>
</linearGradient>
<path fill="url(#SVGID_00000137810473642260655670000012112620905306288298_)" d="M195,120c0,1.9-1.1,3.7-2.9,4.6
	c-29.4,13.4-53.1,6.6-75.9,0.1c-21-6-40.9-11.7-63.9-0.2c-2.5,1.2-5.5,0.2-6.7-2.2c-1.2-2.5-0.2-5.5,2.2-6.7
	c26.5-13.3,49.2-6.8,71.1-0.5c22.1,6.3,42.9,12.3,69,0.4c2.5-1.1,5.5,0,6.6,2.5C194.8,118.6,195,119.3,195,120z"/>
<linearGradient id="SVGID_00000004537253490444624580000001638260871276955020_" gradientUnits="userSpaceOnUse" x1="44.9706" y1="84.999" x2="194.9726" y2="84.999">
	<stop  offset="5.327789e-09" style="stop-color:#8A8A8A"/>
	<stop  offset="1" style="stop-color:#858752"/>
</linearGradient>
<path fill="url(#SVGID_00000004537253490444624580000001638260871276955020_)" d="M195,85c0,1.9-1.1,3.7-2.9,4.6
	c-29.4,13.4-53.1,6.6-75.9,0.1c-21-6-40.9-11.7-63.9-0.2c-2.5,1.2-5.5,0.2-6.7-2.2c-1.2-2.5-0.2-5.5,2.2-6.7
	c26.5-13.3,49.2-6.8,71.1-0.5c22.1,6.3,42.9,12.3,69,0.4c2.5-1.1,5.5,0,6.6,2.5C194.8,83.6,195,84.3,195,85z"/>
</svg>
