<?xml version="1.0" encoding="utf-8"?>
<!-- Generator: Adobe Illustrator 27.3.1, SVG Export Plug-In . SVG Version: 6.00 Build 0)  -->
<svg version="1.1" baseProfile="basic" id="Livello_1"
	 xmlns="http://www.w3.org/2000/svg" xmlns:xlink="http://www.w3.org/1999/xlink" x="0px" y="0px" viewBox="0 0 240 240"
	 xml:space="preserve">
<radialGradient id="SVGID_1_" cx="-243.7054" cy="161.6761" r="41.5788" gradientTransform="matrix(5 0 0 5 1416 -601.9999)" gradientUnits="userSpaceOnUse">
	<stop  offset="0" style="stop-color:#6D75D6"/>
	<stop  offset="0.123" style="stop-color:#8189DE"/>
	<stop  offset="0.384" style="stop-color:#A7ADEC"/>
	<stop  offset="0.625" style="stop-color:#C3C7F6"/>
	<stop  offset="0.838" style="stop-color:#D3D6FD"/>
	<stop  offset="1" style="stop-color:#D9DCFF"/>
</radialGradient>
<path fill="url(#SVGID_1_)" d="M120,20c-52.5,0-95,42.5-95,95s42.5,95,95,95s95-42.5,95-95S172.5,20,120,20z"/>
<radialGradient id="SVGID_00000159467511922655613660000003846314799035164076_" cx="-258.1171" cy="139.6299" r="5.1167" gradientTransform="matrix(4.8125 0 0 4.8125 1353 -600.3101)" gradientUnits="userSpaceOnUse">
	<stop  offset="0.313" style="stop-color:#6063E0;stop-opacity:0"/>
	<stop  offset="1" style="stop-color:#6063E0"/>
</radialGradient>
<path fill="url(#SVGID_00000159467511922655613660000003846314799035164076_)" d="M105.7,48.5c-7.9,0-14.3,6.4-14.3,14.3
	S97.9,77,105.7,77S120,70.6,120,62.7S113.6,48.5,105.7,48.5z"/>
<radialGradient id="SVGID_00000067230752034969692690000010197621145536520070_" cx="-268.9755" cy="144.5875" r="3.2832" gradientTransform="matrix(5 0 0 5 1416 -601.9999)" gradientUnits="userSpaceOnUse">
	<stop  offset="0.313" style="stop-color:#6063E0;stop-opacity:0"/>
	<stop  offset="1" style="stop-color:#6063E0"/>
</radialGradient>
<path fill="url(#SVGID_00000067230752034969692690000010197621145536520070_)" d="M67.7,105.5c-5.2,0-9.5,4.3-9.5,9.5
	s4.3,9.5,9.5,9.5s9.5-4.3,9.5-9.5S73,105.5,67.7,105.5z"/>
<radialGradient id="SVGID_00000075139587629743433590000006706306198461844617_" cx="-246.8186" cy="141.9161" r="2.4624" gradientTransform="matrix(5 0 0 5 1416 -601.9999)" gradientUnits="userSpaceOnUse">
	<stop  offset="0.313" style="stop-color:#6063E0;stop-opacity:0"/>
	<stop  offset="1" style="stop-color:#6063E0"/>
</radialGradient>
<path fill="url(#SVGID_00000075139587629743433590000006706306198461844617_)" d="M179.4,96c-3.9,0-7.1,3.2-7.1,7.1s3.2,7.1,7.1,7.1
	s7.1-3.2,7.1-7.1S183.3,96,179.4,96z"/>
<linearGradient id="SVGID_00000042015512933856721810000017449709132395057587_" gradientUnits="userSpaceOnUse" x1="-276.979" y1="125.621" x2="-245.792" y2="156.808" gradientTransform="matrix(5 0 0 5 1416 -601.9999)">
	<stop  offset="0" style="stop-color:#FED100"/>
	<stop  offset="1" style="stop-color:#E36001"/>
</linearGradient>
<path display="none" fill="url(#SVGID_00000042015512933856721810000017449709132395057587_)" d="M120,20c-52.5,0-95,42.5-95,95
	s42.5,95,95,95s95-42.5,95-95S172.5,20,120,20z"/>
<path opacity="5.000000e-02" d="M195,117.4C183,93,137.5,95,128.2,128.1c-35.8,1.2-38.8,61.1-3.2,60.5c4.3,0,32.8,0,55,0
	c19.6-16,32.6-39.7,34.6-66.4C211,118.9,201.6,116.1,195,117.4z"/>
<path opacity="7.000000e-02" d="M194.6,118.4c-13-24.3-56.9-20.8-65.4,10.4c-33.4,1.1-35.1,55-1.8,55.3c4.4,0,37.6,0,57,0
	c16.8-15.2,28-36.7,30-60.7C210.3,119.7,201.5,117.1,194.6,118.4z"/>
<path opacity="7.000000e-02" d="M194.3,119.3c-13.9-24.2-56.3-19.3-63.9,10.1c-30.9,0.9-31.3,49.8-0.3,50.1c4.6,0,42.5,0,59.1,0
	c14-14.5,23.3-33.7,25.4-55C209.6,120.6,201.3,118.2,194.3,119.3z"/>
<linearGradient id="SVGID_00000117663721049760902140000014556817068985063570_" gradientUnits="userSpaceOnUse" x1="-253.8261" y1="141.0676" x2="-245.5591" y2="159.5456" gradientTransform="matrix(5 0 0 5 1416 -601.9999)">
	<stop  offset="0" style="stop-color:#FCFCFC"/>
	<stop  offset="1" style="stop-color:#C3C9CD"/>
</linearGradient>
<path fill="url(#SVGID_00000117663721049760902140000014556817068985063570_)" d="M197.5,120c-1.2,0-2.4,0.1-3.6,0.3
	C187.6,111,177,105,165,105c-15.9,0-29.3,10.6-33.6,25.1c-11.9,0.6-21.4,10.3-21.4,22.4c0,12.4,10.1,22.5,22.5,22.5
	c5.4,0,59.4,0,65,0c15.2,0,27.5-12.3,27.5-27.5S212.7,120,197.5,120z"/>
</svg>
