<?xml version="1.0" encoding="utf-8"?>
<svg xmlns="http://www.w3.org/2000/svg" viewBox="0 0 48 48" width="144" height="144">
  <path d="M9.5 8C6.4802259 8 4 10.480226 4 13.5L4 34.5C4 37.519774 6.4802259 40 9.5 40L38.5 40C41.519774 40 44 37.519774 44 34.5L44 13.5C44 10.480226 41.519774 8 38.5 8L9.5 8 z M 9.5 11L38.5 11C39.898226 11 41 12.101774 41 13.5L41 34.5C41 35.898226 39.898226 37 38.5 37L9.5 37C8.1017741 37 7 35.898226 7 34.5L7 13.5C7 12.101774 8.1017741 11 9.5 11 z M 20.5 17C19.671 17 19 17.671 19 18.5L19 24.349609L14.765625 17.695312C14.407625 17.132312 13.718078 16.874547 13.080078 17.060547C12.439078 17.246547 12 17.833 12 18.5L12 29.5C12 30.329 12.671 31 13.5 31C14.329 31 15 30.329 15 29.5L15 23.650391L19.234375 30.304688C19.515375 30.745688 19.997 31 20.5 31C20.64 31 20.781922 30.979453 20.919922 30.939453C21.560922 30.753453 22 30.167 22 29.5L22 18.5C22 17.671 21.329 17 20.5 17 z M 31 17C30.391 17 29.842328 17.368641 29.611328 17.931641L25.111328 28.931641C24.797328 29.698641 25.164641 30.573719 25.931641 30.886719C26.698641 31.202719 27.575672 30.834406 27.888672 30.066406L28.324219 29L33.675781 29L34.111328 30.066406C34.349328 30.647406 34.910953 31 35.501953 31C35.690953 31 35.882359 30.964672 36.068359 30.888672C36.834359 30.575672 37.202672 29.698641 36.888672 28.931641L32.388672 17.931641C32.158672 17.367641 31.609 17 31 17 z M 31 22.460938L32.447266 26L29.552734 26L31 22.460938 z" fill="#5B5B5B" />
</svg>