<?xml version="1.0" encoding="utf-8"?>
<!-- Generator: Adobe Illustrator 28.0.0, SVG Export Plug-In . SVG Version: 6.00 Build 0)  -->
<svg version="1.1" baseProfile="basic" id="Livello_1"
	 xmlns="http://www.w3.org/2000/svg" xmlns:xlink="http://www.w3.org/1999/xlink" x="0px" y="0px" viewBox="0 0 240 240"
	 xml:space="preserve">
<g>
	<g>
		<image overflow="visible" width="77" height="50" xlink:href="4900D2F7.png"  transform="matrix(1 0 0 1 81 19)">
		</image>
	</g>
</g>
<linearGradient id="SVGID_1_" gradientUnits="userSpaceOnUse" x1="98.4425" y1="224.1494" x2="131.7624" y2="35.1793" gradientTransform="matrix(1 0 0 -1 0 242)">
	<stop  offset="0" style="stop-color:#32BDEF"/>
	<stop  offset="1" style="stop-color:#1EA2E4"/>
</linearGradient>
<path fill="url(#SVGID_1_)" d="M127,13c-4-4-10.5-4-14.5,0C94,33,45,93.5,45,140c0,41.5,33.5,75,75,75s75-33.5,75-75
	C195,93.5,146,33,127,13z M81.7,67.7C94,48.4,108.1,31,119,19.3c0.3-0.2,0.6-0.3,0.8-0.3c0.2,0,0.5,0,0.8,0.3
	c10.2,10.8,24.4,27.9,37,47.3C132.3,68.3,106.8,69.6,81.7,67.7z"/>
</svg>
