<?xml version="1.0" encoding="utf-8"?>
<!-- Generator: Adobe Illustrator 28.0.0, SVG Export Plug-In . SVG Version: 6.00 Build 0)  -->
<svg version="1.1" baseProfile="basic" id="Livello_1"
	 xmlns="http://www.w3.org/2000/svg" xmlns:xlink="http://www.w3.org/1999/xlink" x="0px" y="0px" viewBox="0 0 240 240"
	 xml:space="preserve">
<linearGradient id="SVGID_1_" gradientUnits="userSpaceOnUse" x1="98.4425" y1="224.1494" x2="131.7624" y2="35.1793" gradientTransform="matrix(1 0 0 -1 0 242)">
	<stop  offset="0" style="stop-color:#32BDEF"/>
	<stop  offset="1" style="stop-color:#1EA2E4"/>
</linearGradient>
<path fill="url(#SVGID_1_)" d="M127,13c-4-4-10.5-4-14.5,0C94,33,45,93.5,45,140c0,41.5,33.5,75,75,75s75-33.5,75-75
	C195,93.5,146,33,127,13z M120,206c-36.4,0-66-29.6-66-66c0-39.8,40.7-94.5,64.9-120.7c0.3-0.2,0.6-0.3,0.8-0.3s0.6,0.1,0.8,0.3
	C143.3,43.2,186,99.1,186,140C186,176.4,156.4,206,120,206z"/>
</svg>
