<svg xmlns="http://www.w3.org/2000/svg" width="auto" height="auto" baseProfile="basic" viewBox="0 0 48 48"><path fill="#50e6ff" d="M37,30.831C37,38.102,31.178,44,24,44s-13-5.898-13-13.169c0-6.139,9.266-20.685,12.152-25.067c0.403-0.611,1.293-0.611,1.695,0C27.734,10.146,37,24.692,37,30.831z"/><linearGradient id="ofeOT_BasFoG9uIZIgMgya" x1="24.002" x2="24.002" y1="27.125" y2="41" gradientUnits="userSpaceOnUse"><stop offset="0" stop-color="#2aa4f4"/><stop offset=".595" stop-color="#0f80e3"/><stop offset="1" stop-color="#006dd9"/></linearGradient><path fill="url(#ofeOT_BasFoG9uIZIgMgya)" d="M19.062,27.125c-3.983,0-4.979,3.964-4.979,3.964c0,5.473,4.459,9.911,9.958,9.911c5.057,0,9.236-3.754,9.874-8.614c0.059-0.447-0.462-0.755-0.822-0.483c-0.724,0.547-1.822,1.168-3.077,1.168C25.037,33.071,23.046,27.125,19.062,27.125z"/><path d="M19.062,27.125c3.983,0,5.975,5.946,10.954,5.946c1.255,0,2.353-0.621,3.077-1.168c0.094-0.071,0.198-0.102,0.3-0.102 c0.291,0,0.565,0.254,0.521,0.585C33.277,37.246,29.099,41,24.042,41c-5.499,0-9.958-4.438-9.958-9.911 C14.083,31.089,15.079,27.125,19.062,27.125 M19.062,26.125c-3.768,0-5.539,3.088-5.949,4.721l-0.03,0.12v0.124 C13.083,37.105,17.999,42,24.042,42c5.484,0,10.155-4.077,10.865-9.484c0.057-0.431-0.075-0.865-0.361-1.191 c-0.292-0.333-0.712-0.524-1.152-0.524c-0.328,0-0.64,0.105-0.904,0.304c-0.583,0.441-1.486,0.966-2.474,0.966 c-2.238,0-3.794-1.436-5.442-2.956C22.981,27.645,21.334,26.125,19.062,26.125L19.062,26.125z" opacity=".05"/><path d="M19.062,27.125c3.983,0,5.975,5.946,10.954,5.946c1.255,0,2.353-0.621,3.077-1.168c0.094-0.071,0.198-0.102,0.3-0.102 c0.291,0,0.565,0.254,0.521,0.585C33.277,37.246,29.099,41,24.042,41c-5.499,0-9.958-4.438-9.958-9.911 C14.083,31.089,15.079,27.125,19.062,27.125 M19.062,26.625c-4.323,0-5.453,4.299-5.464,4.342l-0.015,0.06v0.062 c0,5.74,4.692,10.411,10.458,10.411c5.234,0,9.692-3.89,10.37-9.049c0.038-0.292-0.047-0.575-0.241-0.796 c-0.197-0.225-0.48-0.354-0.776-0.354c-0.218,0-0.426,0.07-0.602,0.203c-0.644,0.487-1.649,1.067-2.776,1.067 c-2.433,0-4.135-1.57-5.781-3.089C22.713,28.078,21.138,26.625,19.062,26.625L19.062,26.625z" opacity=".07"/></svg>