<svg xmlns="http://www.w3.org/2000/svg" xmlns:xlink="http://www.w3.org/1999/xlink" id="Livello_1" x="0" y="0" enable-background="new 0 0 240 240" version="1.1" viewBox="0 0 240 240" xml:space="preserve"><g><radialGradient id="SVGID_1_" cx="-117.74" cy="445.807" r="20.365" gradientTransform="matrix(5 0 0 -5 708 2403.4492)" gradientUnits="userSpaceOnUse"><stop offset=".756" style="stop-color:#ffed54"/><stop offset=".806" style="stop-color:#ffe649"/><stop offset=".891" style="stop-color:#ffd22d"/><stop offset="1" style="stop-color:#ffb300"/></radialGradient><path fill="url(#SVGID_1_)" d="M120,67.5l6.8,7c4.4,4.6,11.4,5.7,17,2.7l8.6-4.6l4.3,8.8c2.8,5.8,9.1,8.9,15.4,7.8l9.6-1.7l1.4,9.7 c0.9,6.3,5.9,11.3,12.2,12.2l9.7,1.3l-1.7,9.6c-1.1,6.3,2.1,12.6,7.8,15.4l8.8,4.3l-4.6,8.6c-3,5.6-1.9,12.6,2.7,17l7,6.8H15l7-6.8 c4.6-4.4,5.7-11.4,2.7-17l-4.6-8.6l8.8-4.3c5.8-2.8,9-9.1,7.8-15.4l-1.7-9.6l9.7-1.4c6.3-0.9,11.3-5.9,12.2-12.2l1.3-9.7l9.6,1.7 c6.3,1.1,12.6-2.1,15.4-7.8l4.3-8.8l8.6,4.6c5.6,3,12.6,1.9,17-2.7L120,67.5z"/><linearGradient id="SVGID_00000137818360786003122860000016088798394797178289_" x1="-127.884" x2="-101.082" y1="459.788" y2="432.986" gradientTransform="matrix(5 0 0 -5 708 2403.4492)" gradientUnits="userSpaceOnUse"><stop offset="0" style="stop-color:#fed100"/><stop offset="1" style="stop-color:#e36001"/></linearGradient><path fill="url(#SVGID_00000137818360786003122860000016088798394797178289_)" d="M120,92.5c-44.2,0-80,35.8-80,80h160 C200,128.3,164.2,92.5,120,92.5z"/></g><linearGradient id="SVGID_00000042000728434335793850000002260741057634604709_" x1="-117.969" x2="-117.4" y1="460.217" y2="448.404" gradientTransform="matrix(-5 0 0 5 -468.0139 -2135.0811)" gradientUnits="userSpaceOnUse"><stop offset="0" style="stop-color:#9cf"/><stop offset="1" style="stop-color:#255b82"/></linearGradient><path fill="url(#SVGID_00000042000728434335793850000002260741057634604709_)" d="M96.6,130.6l14.7,0l0,30.4c0,2.4,1.9,4.3,4.3,4.3	h8.7c2.4,0,4.3-1.9,4.3-4.3l0-30.4h14.7c2.3,0,3.5-2.8,1.9-4.5l-21.5-21.5c-2.1-2.1-5.4-2.1-7.4,0l-21.5,21.5	C93.1,127.8,94.3,130.6,96.6,130.6z"/></svg>