<?xml version="1.0" encoding="utf-8"?>
<!-- Generator: Adobe Illustrator 27.3.1, SVG Export Plug-In . SVG Version: 6.00 Build 0)  -->
<svg version="1.1" id="Livello_1" xmlns="http://www.w3.org/2000/svg" xmlns:xlink="http://www.w3.org/1999/xlink" x="0px" y="0px"
	 viewBox="0 0 240 240" enable-background="new 0 0 240 240" xml:space="preserve">
<g>
	
		<radialGradient id="SVGID_1_" cx="-117.74" cy="445.8068" r="20.365" gradientTransform="matrix(5 0 0 -5 708 2403.4492)" gradientUnits="userSpaceOnUse">
		<stop  offset="0.756" style="stop-color:#FFED54"/>
		<stop  offset="0.806" style="stop-color:#FFE649"/>
		<stop  offset="0.891" style="stop-color:#FFD22D"/>
		<stop  offset="1" style="stop-color:#FFB300"/>
	</radialGradient>
	<path fill="url(#SVGID_1_)" d="M120,67.5l6.8,7c4.4,4.6,11.4,5.7,17,2.7l8.6-4.6l4.3,8.8c2.8,5.8,9.1,8.9,15.4,7.8l9.6-1.7l1.4,9.7
		c0.9,6.3,5.9,11.3,12.2,12.2l9.7,1.3l-1.7,9.6c-1.1,6.3,2.1,12.6,7.8,15.4l8.8,4.3l-4.6,8.6c-3,5.6-1.9,12.6,2.7,17l7,6.8H15l7-6.8
		c4.6-4.4,5.7-11.4,2.7-17l-4.6-8.6l8.8-4.3c5.8-2.8,9-9.1,7.8-15.4l-1.7-9.6l9.7-1.4c6.3-0.9,11.3-5.9,12.2-12.2l1.3-9.7l9.6,1.7
		c6.3,1.1,12.6-2.1,15.4-7.8l4.3-8.8l8.6,4.6c5.6,3,12.6,1.9,17-2.7L120,67.5z"/>
	
		<linearGradient id="SVGID_00000147189124293181274070000010195562170999073939_" gradientUnits="userSpaceOnUse" x1="-127.8841" y1="459.7878" x2="-101.0821" y2="432.9858" gradientTransform="matrix(5 0 0 -5 708 2403.4492)">
		<stop  offset="0" style="stop-color:#FED100"/>
		<stop  offset="1" style="stop-color:#E36001"/>
	</linearGradient>
	<path fill="url(#SVGID_00000147189124293181274070000010195562170999073939_)" d="M120,92.5c-44.2,0-80,35.8-80,80h160
		C200,128.3,164.2,92.5,120,92.5z"/>
</g>
<linearGradient id="SVGID_00000156582826141187812350000007027269561078576799_" gradientUnits="userSpaceOnUse" x1="-117.9657" y1="460.2142" x2="-117.3977" y2="448.4014" gradientTransform="matrix(5 0 0 -5 708 2403.4492)">
	<stop  offset="0" style="stop-color:#99CCFF"/>
	<stop  offset="1" style="stop-color:#255B82"/>
</linearGradient>
<path fill="url(#SVGID_00000156582826141187812350000007027269561078576799_)" d="M143.4,137.8h-14.7v-30.4c0-2.4-1.9-4.3-4.3-4.3
	h-8.7c-2.4,0-4.3,1.9-4.3,4.3v30.4H96.6c-2.3,0-3.5,2.8-1.9,4.5l21.5,21.5c2.1,2.1,5.4,2.1,7.4,0l21.5-21.5
	C146.9,140.6,145.7,137.8,143.4,137.8z"/>
</svg>
