<svg xmlns="http://www.w3.org/2000/svg" viewBox="0 0 48 48" width="auto" height="auto">
  <radialGradient id="R8J3afpoWRVrwwMestYcta" cx="40.31" cy="-333.239" r="43.767" gradientTransform="matrix(1 0 0 -1 0 -290.001)" gradientUnits="userSpaceOnUse">
    <stop offset="0" stop-color="#6d75d6" />
    <stop offset=".123" stop-color="#8189de" />
    <stop offset=".384" stop-color="#a7adec" />
    <stop offset=".625" stop-color="#c3c7f6" />
    <stop offset=".838" stop-color="#d3d6fd" />
    <stop offset="1" stop-color="#d9dcff" />
  </radialGradient>
  <path fill="url(#R8J3afpoWRVrwwMestYcta)" d="M24,4C12.954,4,4,12.954,4,24s8.954,20,20,20s20-8.954,20-20S35.046,4,24,4z" />
  <radialGradient id="R8J3afpoWRVrwwMestYctb" cx="37.033" cy="-312.439" r="2.592" gradientTransform="matrix(1 0 0 -1 0 -290.001)" gradientUnits="userSpaceOnUse">
    <stop offset=".313" stop-color="#6063e0" stop-opacity="0" />
    <stop offset="1" stop-color="#6063e0" />
  </radialGradient>
  <path fill="url(#R8J3afpoWRVrwwMestYctb)" d="M36.5,20c-0.828,0-1.5,0.672-1.5,1.5s0.672,1.5,1.5,1.5s1.5-0.672,1.5-1.5S37.328,20,36.5,20 z" />
  <radialGradient id="R8J3afpoWRVrwwMestYctc" cx="19.198" cy="15.005" r="32.414" gradientUnits="userSpaceOnUse">
    <stop offset=".212" stop-color="#5059c9" />
    <stop offset=".373" stop-color="#545dcb" />
    <stop offset=".524" stop-color="#5f68d1" />
    <stop offset=".672" stop-color="#727ada" />
    <stop offset=".818" stop-color="#8d94e8" />
    <stop offset=".96" stop-color="#afb5f9" />
    <stop offset="1" stop-color="#bac0ff" />
  </radialGradient>
  <path fill="url(#R8J3afpoWRVrwwMestYctc)" d="M24,4C12.954,4,4,12.954,4,24c0,11.046,8.954,20,20,20C11,39,11,9,24,4z" />
  <radialGradient id="R8J3afpoWRVrwwMestYctd" cx="10.71" cy="-315.251" r="3.456" gradientTransform="matrix(1 0 0 -1 0 -290.001)" gradientUnits="userSpaceOnUse">
    <stop offset=".313" stop-color="#3f41a1" stop-opacity="0" />
    <stop offset="1" stop-color="#3f41a1" />
  </radialGradient>
  <path fill="url(#R8J3afpoWRVrwwMestYctd)" d="M10,22c-1.105,0-2,0.895-2,2s0.895,2,2,2s2-0.895,2-2S11.105,22,10,22z" />
  <radialGradient id="R8J3afpoWRVrwwMestYcte" cx="31.873" cy="-321.664" r="5.386" gradientTransform="matrix(.9625 0 0 -.9625 -7.612 -294.726)" gradientUnits="userSpaceOnUse">
    <stop offset=".313" stop-color="#6063e0" stop-opacity="0" />
    <stop offset="1" stop-color="#6063e0" />
  </radialGradient>
  <path fill="url(#R8J3afpoWRVrwwMestYcte)" d="M22,10c-1.657,0-3,1.343-3,3s1.343,3,3,3s3-1.343,3-3S23.657,10,22,10z" />
</svg>