<?xml version="1.0" encoding="utf-8"?>
<svg xmlns="http://www.w3.org/2000/svg" viewBox="0 0 48 48" width="auto" height="auto">
  <path d="M5.484375 3.984375 A 1.50015 1.50015 0 0 0 4.4394531 6.5605469L7.671875 9.7929688C3.8285043 14.691243 4.1526099 21.82839 8.6621094 26.337891C13.908579 31.584361 15.568359 36.945312 15.568359 36.945312 A 1.50015 1.50015 0 0 0 18.199219 37.400391C18.199219 37.400391 20.742186 33.999789 21.669922 29.945312C22.944045 29.910773 25.39526 29.783611 27.974609 28.923828 A 1.50015 1.50015 0 0 0 28.923828 27.974609C29.783611 25.39526 29.910777 22.944045 29.945312 21.669922C33.999789 20.742186 37.400391 18.199219 37.400391 18.199219 A 1.50015 1.50015 0 0 0 36.945312 15.568359C36.945312 15.568359 31.584361 13.908579 26.337891 8.6621094C23.903754 6.2274055 20.702176 5.0097715 17.5 5.0097656C14.770839 5.0097607 12.046707 5.9033161 9.7929688 7.671875L6.5605469 4.4394531 A 1.50015 1.50015 0 0 0 5.484375 3.984375 z M 17.5 7.9902344C19.928074 7.9902285 22.355934 8.9219071 24.216797 10.783203C27.856641 14.423048 31.010718 16.158183 33.291016 17.207031C31.879558 17.97352 30.054114 18.794261 28.314453 19.011719 A 1.50015 1.50015 0 0 0 27 20.5C27 20.5 26.881258 23.67355 26.224609 26.224609C23.67355 26.881258 20.5 27 20.5 27 A 1.50015 1.50015 0 0 0 19.011719 28.314453C18.794261 30.054114 17.97352 31.879558 17.207031 33.291016C16.158183 31.010718 14.423048 27.856641 10.783203 24.216797C7.1137945 20.547388 7.0688005 14.681829 10.632812 10.949219 A 1.50015 1.50015 0 0 0 10.953125 10.628906C12.791595 8.8754134 15.143385 7.99024 17.5 7.9902344 z M 42.5 25 A 1.5 1.5 0 0 0 42.5 28 A 1.5 1.5 0 0 0 42.5 25 z M 35.5 26 A 1.5 1.5 0 0 0 35.5 29 A 1.5 1.5 0 0 0 35.5 26 z M 41.5 32 A 1.5 1.5 0 0 0 41.5 35 A 1.5 1.5 0 0 0 41.5 32 z M 34.5 33 A 1.5 1.5 0 0 0 34.5 36 A 1.5 1.5 0 0 0 34.5 33 z M 27.5 34 A 1.5 1.5 0 0 0 27.5 37 A 1.5 1.5 0 0 0 27.5 34 z M 33.5 40 A 1.5 1.5 0 0 0 33.5 43 A 1.5 1.5 0 0 0 33.5 40 z M 26.5 41 A 1.5 1.5 0 0 0 26.5 44 A 1.5 1.5 0 0 0 26.5 41 z" fill="#5B5B5B" />
</svg>