<?xml version="1.0" encoding="utf-8"?>
<svg xmlns="http://www.w3.org/2000/svg" viewBox="0 0 48 48" width="auto" height="auto">
  <path d="M20.5 2C19.671 2 19 2.671 19 3.5L19 5.5C19 6.0545352 19.303063 6.5333762 19.75 6.7929688C15.227883 8.5140529 12 12.881106 12 18L12 19.5C12 20.707 12.86 21.717219 14 21.949219L13.992188 30.052734C12.856187 30.288734 12 31.295 12 32.5L12 40.5C12 43.533 14.467 46 17.5 46L30.5 46C33.533 46 36 43.533 36 40.5L36 32.5C36 31.293 35.14 30.282781 34 30.050781L34 21.949219C35.14 21.716219 36 20.707 36 19.5L36 18C36 12.881106 32.772117 8.5140529 28.25 6.7929688C28.696937 6.5333762 29 6.0545352 29 5.5L29 3.5C29 2.671 28.329 2 27.5 2L20.5 2 z M 24.355469 9.0078125C29.153967 9.1942725 33 13.156875 33 18L33 19L20.5 19C19.672 19 19 19.672 19 20.5C19 21.328 19.672 22 20.5 22L31 22L31 30L20.5 30C19.672 30 19 30.672 19 31.5C19 32.328 19.672 33 20.5 33L33 33L33 40.5C33 41.881 31.881 43 30.5 43L17.5 43C16.119 43 15 41.881 15 40.5L15 33C16.105 33 17 32.105 17 31L17 30L16.992188 30L17 22L17 21C17 19.895 16.105 19 15 19L15 18.318359C15 13.529359 18.604812 9.3414844 23.382812 9.0214844C23.710313 8.9994844 24.035569 8.9953818 24.355469 9.0078125 z" fill="#5B5B5B" />
</svg>